<svg xmlns="http://www.w3.org/2000/svg" viewBox="0 0 700 620" role="img" aria-labelledby="title desc"><title id="title">Minorz mascot placeholder</title><desc id="desc">Stylised outlaw hyena mascot in black and neon green.</desc><defs><linearGradient id="g" x1="0" y1="0" x2="1" y2="1"><stop offset="0" stop-color="#1b1f1a"/><stop offset="1" stop-color="#080908"/></linearGradient><filter id="glow"><feGaussianBlur stdDeviation="5" result="b"/><feMerge><feMergeNode in="b"/><feMergeNode in="SourceGraphic"/></feMerge></filter></defs><rect width="700" height="620" fill="none"/><g transform="translate(70 30)"><path d="M135 155 Q270 20 450 125 L485 185 Q385 210 255 205 Q175 200 105 178 Z" fill="#0d0f0d" stroke="#8cff00" stroke-width="8"/><path d="M195 135 Q280 70 390 110" fill="none" stroke="#3e453b" stroke-width="18" stroke-linecap="round"/><path d="M210 210 Q155 145 120 230 L175 305 Z" fill="#9f876b" stroke="#111" stroke-width="10"/><path d="M398 205 Q470 150 500 250 L425 305 Z" fill="#9f876b" stroke="#111" stroke-width="10"/><path d="M165 235 Q275 160 420 240 Q485 285 450 390 Q405 505 280 510 Q160 505 115 405 Q80 310 165 235Z" fill="#a88c6b" stroke="#111" stroke-width="12"/><path d="M145 320 Q270 250 430 320 Q420 430 300 465 Q180 430 145 320Z" fill="#6f5b47" opacity=".45"/><ellipse cx="225" cy="305" rx="50" ry="25" fill="#111" transform="rotate(-12 225 305)"/><ellipse cx="365" cy="300" rx="50" ry="25" fill="#111" transform="rotate(12 365 300)"/><ellipse cx="230" cy="302" rx="16" ry="10" fill="#8cff00" filter="url(#glow)"/><ellipse cx="360" cy="297" rx="16" ry="10" fill="#8cff00" filter="url(#glow)"/><path d="M255 345 Q295 320 335 345 L318 385 Q290 400 270 380Z" fill="#111"/><path d="M215 395 Q292 455 382 398 Q347 475 292 478 Q245 470 215 395Z" fill="#111"/><path d="M240 418 l18 24 l16-28 l18 31 l18-31 l16 27 l17-24" fill="#f4f4ef"/><circle cx="190" cy="260" r="12" fill="#1a1c19"/><circle cx="420" cy="262" r="12" fill="#1a1c19"/><path d="M102 535 Q180 455 290 470 Q420 455 505 540 L490 590 L105 590Z" fill="url(#g)" stroke="#1f241e" stroke-width="8"/><path d="M180 540 L250 500 L305 552 L370 498 L440 545" fill="none" stroke="#8cff00" stroke-width="7"/><text x="300" y="565" text-anchor="middle" font-family="Arial Black,Arial" font-size="38" fill="#f4f6f0" transform="rotate(-4 300 565)">RAGE BAIT</text><text x="300" y="602" text-anchor="middle" font-family="Arial" font-size="16" letter-spacing="7" fill="#8cff00">MINORZ</text></g></svg>